<svg width="85" height="72" viewBox="0 0 85 72" fill="none" xmlns="http://www.w3.org/2000/svg">
<path d="M38 3.17543C40.1658 1.925 42.8342 1.925 45 3.17543L52.1554 7.30662C54.3213 8.55705 55.6554 10.8679 55.6554 13.3688V21.6312C55.6554 24.1321 54.3213 26.4429 52.1554 27.6934L45 31.8246C42.8342 33.075 40.1658 33.075 38 31.8246L30.8446 27.6934C28.6787 26.4429 27.3446 24.1321 27.3446 21.6312V13.3688C27.3446 10.8679 28.6787 8.55705 30.8446 7.30662L38 3.17543Z" stroke="#7613D9" stroke-width="2"/>
<path d="M47.8533 24.0131L46.4509 22.5566L35.688 23.7236L34.9479 23.8146C34.2902 23.8955 33.7371 23.3259 33.8373 22.6708L34.492 18.3928L34.8337 16.2453L35.174 14.8263L35.4929 13.572C35.5081 13.512 35.5294 13.4524 35.5556 13.3964C36.9008 10.5186 37.7672 9.85938 41.5201 9.85938C45.9383 9.85937 46.2829 12.0066 47.1358 14.8263L47.9901 18.3928L48.8444 21.4663L49.2702 22.5832C49.5595 23.3419 48.9992 24.1551 48.1873 24.1551C48.0613 24.1551 47.9407 24.1039 47.8533 24.0131Z" fill="#7613D9"/>
<path d="M45.3702 14.9197L46.2075 19.6538C46.3083 20.2241 45.9053 20.7605 45.3295 20.8223L41.696 21.2122L38.5043 21.7644C37.1684 21.9955 35.9945 20.8586 36.1827 19.516L36.8271 14.9197C37.5561 12.7686 39.275 11.6333 41.4631 11.6333C44.0147 11.6333 44.6412 12.7686 45.3702 14.9197Z" fill="#EFEFEF"/>
<path d="M38.9051 19.3728C39.435 19.2868 39.708 19.1085 39.7715 18.611C39.708 18.1002 39.435 17.8434 38.9051 17.7708C38.4098 17.8434 38.2086 18.1002 38.1105 18.611C38.2086 19.1085 38.4098 19.2868 38.9051 19.3728Z" fill="#7613D9"/>
<path fill-rule="evenodd" clip-rule="evenodd" d="M41.4402 66.4121C42.0117 66.3485 42.412 65.8171 42.3153 65.2502L40.9119 57.0165C39.7857 53.5685 38.8179 51.7487 34.8763 51.7487C31.4961 51.7487 28.8407 53.5685 27.7145 57.0165L26.4986 66.0159C26.3169 67.3606 27.4984 68.492 28.8339 68.2523L35.2359 67.103L41.4402 66.4121ZM42.4934 69.4077L44.6567 71.7389C44.7934 71.8863 44.9853 71.97 45.1863 71.97C46.4425 71.97 47.3151 70.7197 46.8819 69.5406L46.1909 67.66L44.8711 62.7334L43.5514 57.0165C42.2338 52.4968 41.7016 49.0549 34.8763 49.0549C29.0566 49.0549 27.7302 50.1196 25.6384 54.7777C25.6137 54.8324 25.5936 54.8909 25.5793 54.9492L25.0729 57.0165L24.5471 59.2911L24.0192 62.7334L22.8919 70.3776C22.7953 71.0328 23.3508 71.5992 24.0078 71.5154L25.8669 71.2783L42.4934 69.4077ZM32.2181 63.0027C32.12 63.8002 31.6983 64.086 30.8797 64.2239C30.1146 64.086 29.8036 63.8002 29.6521 63.0027C29.8036 62.184 30.1146 61.7724 30.8797 61.6559C31.6983 61.7724 32.12 62.184 32.2181 63.0027ZM0 61.3381C0.263948 66.4256 4.52999 71.7737 10.2918 71.6823C14.5171 71.9818 20.324 72.4904 19.5842 68.1805V61.3381L10.6158 60.9446C10.2348 60.9279 9.97607 61.3269 10.1468 61.668L11.2102 63.7924C11.3328 64.0373 11.5973 64.1774 11.8688 64.1413L14.9058 63.7369C16.425 63.5346 17.7116 64.8503 17.4755 66.3646C16.6287 67.5221 13.6636 69.411 11.0663 69.411C6.82708 69.411 3.43132 65.6335 3.43132 61.3381C3.43132 57.1035 6.33259 53.6343 10.2918 53.0955C11.6687 52.7833 13.8443 53.3357 15.79 54.4849C16.838 55.1038 19.0702 54.173 19.0042 52.9576C15.5729 50.5332 13.4592 49.4741 10.2918 49.4741C4.18532 49.4741 0.0895409 55.5803 0 61.3381ZM63.5119 71.97C64.4388 71.97 65.0679 71.0277 64.7126 70.1716L61.9945 63.6235C61.8664 63.3147 62.0182 62.964 62.3128 62.8061C64.2477 61.7688 64.929 59.8012 64.929 57.3689C64.1299 53.7572 63.0813 50.3652 58.8603 49.3426H51.1618C50.605 49.3426 50.1554 49.7974 50.1619 50.3542L50.3963 70.4474C50.4054 71.2355 51.1328 71.8185 51.904 71.656L53.2436 71.3736C53.2873 71.3644 53.3196 71.3273 53.3227 71.2828L53.8061 64.3757C53.8277 64.0683 54.0976 63.8385 54.4046 63.8664L57.5928 64.1561C57.9086 64.1848 58.1921 64.3615 58.3568 64.6325L62.7006 71.7778C62.7731 71.8971 62.9027 71.97 63.0423 71.97H63.5119ZM52.9328 53.7741C52.8536 53.2295 53.2292 52.7233 53.7733 52.6413L56.4848 52.2325L58.8603 52.7896C60.444 53.3283 60.708 53.1237 62.2917 56.8119C62.0277 58.7805 62.0277 59.775 60.1801 60.638L54.0411 60.0627C53.9262 60.0519 53.8336 59.964 53.817 59.8498L52.9328 53.7741ZM84.989 66.1209C84.989 63.6533 83.6157 61.7646 81.317 61.003C82.3917 60.0586 83.6714 56.2105 83.6714 54.6569C83.6714 51.5495 80.2401 49.5387 76.8088 49L71.0709 49.4643C70.5516 49.5064 70.1516 49.9401 70.1516 50.4611V70.981C70.1516 71.5272 70.5944 71.97 71.1406 71.97H79.7122C83.5634 71.97 84.989 69.5024 84.989 66.1209ZM78.6543 53.4015C80.5041 54.7484 80.5019 54.9585 80.5019 56.634C80.5019 58.3095 78.6898 60.1195 76.7493 60.1195H73.4836C73.3548 60.1195 73.247 60.0216 73.2347 59.8934L72.6034 53.3171C72.5934 53.2128 72.6655 53.1185 72.7688 53.1008L74.6972 52.7712H76.7493L78.6543 53.4015ZM81.317 65.7927C81.8427 67.9477 80.2401 69.2946 77.5985 69.0252L73.8135 68.7677C73.7137 68.7609 73.6342 68.6814 73.6275 68.5816L73.2704 63.2699C73.2623 63.1496 73.3412 63.0407 73.458 63.0109L75.2229 62.5602H77.3345C79.4439 62.8296 80.5251 63.6377 81.317 65.7927Z" fill="#7613D9"/>
</svg>
